<mxfile host="65bd71144e" pages="7" scale="1" border="5" disableSvgWarning="true">
    <diagram id="elLn6caSq64X3h7uAWg6" name="bbr-bitcoin">
        <mxGraphModel dx="839" dy="420" grid="0" gridSize="10" guides="1" tooltips="1" connect="1" arrows="1" fold="1" page="1" pageScale="1" pageWidth="1600" pageHeight="900" background="#ffffff" math="0" shadow="0">
            <root>
                <mxCell id="0"/>
                <mxCell id="1" parent="0"/>
                <mxCell id="vhz3e2oSNB2hs0tcHL_v-1" value="Block N" style="rounded=0;whiteSpace=wrap;html=1;labelBackgroundColor=none;labelBorderColor=none;strokeColor=default;strokeWidth=1;fontFamily=Verdana;fontSize=11;fontColor=#000000;fillColor=#FFFFFF;gradientColor=none;flipV=1;flipH=1;" parent="1" vertex="1">
                    <mxGeometry x="100" y="80" width="110" height="30" as="geometry"/>
                </mxCell>
                <mxCell id="vhz3e2oSNB2hs0tcHL_v-2" value="Block N+1" style="rounded=0;whiteSpace=wrap;html=1;labelBackgroundColor=none;labelBorderColor=none;strokeColor=default;strokeWidth=1;fontFamily=Verdana;fontSize=11;fontColor=#000000;fillColor=#FFFFFF;gradientColor=none;flipV=1;flipH=1;" parent="1" vertex="1">
                    <mxGeometry x="240" y="80" width="110" height="30" as="geometry"/>
                </mxCell>
                <mxCell id="vhz3e2oSNB2hs0tcHL_v-4" value="" style="rounded=0;whiteSpace=wrap;html=1;labelBackgroundColor=none;labelBorderColor=none;strokeColor=default;strokeWidth=1;fontFamily=Verdana;fontSize=11;fontColor=#000000;fillColor=#FFFFFF;gradientColor=none;flipV=1;flipH=1;" parent="1" vertex="1">
                    <mxGeometry x="240" y="110" width="110" height="60" as="geometry"/>
                </mxCell>
                <mxCell id="vhz3e2oSNB2hs0tcHL_v-6" value="Bitcoin TX" style="rounded=0;whiteSpace=wrap;html=1;labelBackgroundColor=none;labelBorderColor=none;strokeColor=default;strokeWidth=1;fontFamily=Verdana;fontSize=11;fontColor=#000000;fillColor=#FFFFFF;gradientColor=none;flipV=1;flipH=1;" parent="1" vertex="1">
                    <mxGeometry x="240" y="110" width="110" height="20" as="geometry"/>
                </mxCell>
                <mxCell id="vhz3e2oSNB2hs0tcHL_v-7" value="Inscription Tx" style="rounded=0;whiteSpace=wrap;html=1;labelBackgroundColor=none;labelBorderColor=none;strokeColor=default;strokeWidth=1;fontFamily=Verdana;fontSize=11;fontColor=#000000;fillColor=#FFFFFF;gradientColor=none;flipV=1;flipH=1;" parent="1" vertex="1">
                    <mxGeometry x="240" y="130" width="110" height="20" as="geometry"/>
                </mxCell>
                <mxCell id="vhz3e2oSNB2hs0tcHL_v-8" value="Babylon Staking Tx" style="rounded=0;whiteSpace=wrap;html=1;labelBackgroundColor=none;labelBorderColor=none;strokeColor=default;strokeWidth=1;fontFamily=Verdana;fontSize=11;fontColor=#000000;fillColor=#FFFFFF;gradientColor=none;flipV=1;flipH=1;" parent="1" vertex="1">
                    <mxGeometry x="240" y="150" width="110" height="20" as="geometry"/>
                </mxCell>
                <mxCell id="vhz3e2oSNB2hs0tcHL_v-9" value="Block N+2" style="rounded=0;whiteSpace=wrap;html=1;labelBackgroundColor=none;labelBorderColor=none;strokeColor=default;strokeWidth=1;fontFamily=Verdana;fontSize=11;fontColor=#000000;fillColor=#FFFFFF;gradientColor=none;flipV=1;flipH=1;" parent="1" vertex="1">
                    <mxGeometry x="380" y="80" width="110" height="30" as="geometry"/>
                </mxCell>
                <mxCell id="vhz3e2oSNB2hs0tcHL_v-13" value="Rooch" style="rounded=1;whiteSpace=wrap;html=1;verticalAlign=bottom;labelBackgroundColor=none;fillColor=none;fontColor=#333333;strokeColor=#666666;fontSize=14;" parent="1" vertex="1">
                    <mxGeometry x="390" y="222.5" width="360" height="177.5" as="geometry"/>
                </mxCell>
                <mxCell id="vhz3e2oSNB2hs0tcHL_v-11" value="MoveVM" style="rounded=1;whiteSpace=wrap;html=1;labelBackgroundColor=none;labelBorderColor=none;strokeColor=default;strokeWidth=1;fontFamily=Verdana;fontSize=11;fontColor=#000000;fillColor=#FFFFFF;gradientColor=none;flipV=1;flipH=1;verticalAlign=top;dashed=1;dashPattern=1 1;" parent="1" vertex="1">
                    <mxGeometry x="396" y="237" width="120" height="153" as="geometry"/>
                </mxCell>
                <mxCell id="vhz3e2oSNB2hs0tcHL_v-14" value="utxo.move" style="rounded=0;whiteSpace=wrap;html=1;labelBackgroundColor=none;labelBorderColor=none;strokeColor=default;strokeWidth=1;fontFamily=Verdana;fontSize=11;fontColor=#000000;fillColor=#FFFFFF;gradientColor=none;flipV=1;flipH=1;dashed=1;" parent="1" vertex="1">
                    <mxGeometry x="401" y="264" width="110" height="30" as="geometry"/>
                </mxCell>
                <mxCell id="vhz3e2oSNB2hs0tcHL_v-15" value="ord.move" style="rounded=0;whiteSpace=wrap;html=1;labelBackgroundColor=none;labelBorderColor=none;strokeColor=default;strokeWidth=1;fontFamily=Verdana;fontSize=11;fontColor=#000000;fillColor=#FFFFFF;gradientColor=none;flipV=1;flipH=1;dashed=1;" parent="1" vertex="1">
                    <mxGeometry x="401" y="294" width="110" height="30" as="geometry"/>
                </mxCell>
                <mxCell id="vhz3e2oSNB2hs0tcHL_v-16" value="bbn.move" style="rounded=0;whiteSpace=wrap;html=1;labelBackgroundColor=none;labelBorderColor=none;strokeColor=default;strokeWidth=1;fontFamily=Verdana;fontSize=11;fontColor=#000000;fillColor=#FFFFFF;gradientColor=none;flipV=1;flipH=1;dashed=1;" parent="1" vertex="1">
                    <mxGeometry x="401" y="324" width="110" height="30" as="geometry"/>
                </mxCell>
                <mxCell id="vhz3e2oSNB2hs0tcHL_v-23" style="edgeStyle=none;html=1;exitX=0.5;exitY=1;exitDx=0;exitDy=0;entryX=0.5;entryY=0;entryDx=0;entryDy=0;fontSize=7;endArrow=none;endFill=0;strokeWidth=0.5;" parent="1" source="vhz3e2oSNB2hs0tcHL_v-17" target="vhz3e2oSNB2hs0tcHL_v-20" edge="1">
                    <mxGeometry relative="1" as="geometry"/>
                </mxCell>
                <mxCell id="vhz3e2oSNB2hs0tcHL_v-24" style="edgeStyle=none;html=1;exitX=0.5;exitY=1;exitDx=0;exitDy=0;entryX=0.5;entryY=0;entryDx=0;entryDy=0;strokeWidth=0.5;fontSize=7;endArrow=none;endFill=0;" parent="1" source="vhz3e2oSNB2hs0tcHL_v-17" target="vhz3e2oSNB2hs0tcHL_v-21" edge="1">
                    <mxGeometry relative="1" as="geometry"/>
                </mxCell>
                <mxCell id="vhz3e2oSNB2hs0tcHL_v-25" style="edgeStyle=none;html=1;exitX=0.5;exitY=1;exitDx=0;exitDy=0;entryX=0.5;entryY=0;entryDx=0;entryDy=0;strokeWidth=0.5;fontSize=7;endArrow=none;endFill=0;" parent="1" source="vhz3e2oSNB2hs0tcHL_v-17" target="vhz3e2oSNB2hs0tcHL_v-22" edge="1">
                    <mxGeometry relative="1" as="geometry"/>
                </mxCell>
                <mxCell id="vhz3e2oSNB2hs0tcHL_v-31" style="edgeStyle=none;html=1;exitX=0.5;exitY=1;exitDx=0;exitDy=0;entryX=0.5;entryY=0;entryDx=0;entryDy=0;strokeWidth=0.5;fontSize=7;endArrow=none;endFill=0;" parent="1" source="vhz3e2oSNB2hs0tcHL_v-17" target="vhz3e2oSNB2hs0tcHL_v-30" edge="1">
                    <mxGeometry relative="1" as="geometry"/>
                </mxCell>
                <mxCell id="vhz3e2oSNB2hs0tcHL_v-17" value="StateRoot" style="rounded=0;whiteSpace=wrap;html=1;labelBackgroundColor=none;labelBorderColor=none;strokeColor=default;strokeWidth=0.5;fontFamily=Verdana;fontSize=7;fontColor=#000000;fillColor=#FFFFFF;gradientColor=none;flipV=1;flipH=1;" parent="1" vertex="1">
                    <mxGeometry x="594" y="237" width="90" height="23" as="geometry"/>
                </mxCell>
                <mxCell id="vhz3e2oSNB2hs0tcHL_v-20" value="UTXO" style="rounded=1;whiteSpace=wrap;html=1;labelBackgroundColor=none;labelBorderColor=none;strokeColor=default;strokeWidth=0.5;fontFamily=Verdana;fontSize=7;fontColor=#000000;fillColor=#FFFFFF;gradientColor=none;flipV=1;flipH=1;" parent="1" vertex="1">
                    <mxGeometry x="546" y="338.5" width="46" height="23" as="geometry"/>
                </mxCell>
                <mxCell id="vhz3e2oSNB2hs0tcHL_v-21" value="Inscription" style="rounded=1;whiteSpace=wrap;html=1;labelBackgroundColor=none;labelBorderColor=none;strokeColor=default;strokeWidth=0.5;fontFamily=Verdana;fontSize=7;fontColor=#000000;fillColor=#FFFFFF;gradientColor=none;flipV=1;flipH=1;" parent="1" vertex="1">
                    <mxGeometry x="598" y="338.5" width="43" height="23" as="geometry"/>
                </mxCell>
                <mxCell id="vhz3e2oSNB2hs0tcHL_v-22" value="BBNStaking&lt;br&gt;Seal" style="rounded=1;whiteSpace=wrap;html=1;labelBackgroundColor=none;labelBorderColor=none;strokeColor=default;strokeWidth=0.5;fontFamily=Verdana;fontSize=7;fontColor=#000000;fillColor=#FFFFFF;gradientColor=none;flipV=1;flipH=1;" parent="1" vertex="1">
                    <mxGeometry x="648" y="338.5" width="47" height="23" as="geometry"/>
                </mxCell>
                <mxCell id="vhz3e2oSNB2hs0tcHL_v-26" style="edgeStyle=none;html=1;exitX=1;exitY=0.5;exitDx=0;exitDy=0;entryX=0;entryY=0.75;entryDx=0;entryDy=0;strokeWidth=1;fontSize=7;endArrow=classic;endFill=1;" parent="1" source="vhz3e2oSNB2hs0tcHL_v-6" target="vhz3e2oSNB2hs0tcHL_v-14" edge="1">
                    <mxGeometry relative="1" as="geometry"/>
                </mxCell>
                <mxCell id="vhz3e2oSNB2hs0tcHL_v-29" value="app.move" style="rounded=0;whiteSpace=wrap;html=1;labelBackgroundColor=none;labelBorderColor=none;strokeColor=default;strokeWidth=1;fontFamily=Verdana;fontSize=11;fontColor=#000000;fillColor=#FFFFFF;gradientColor=none;flipV=1;flipH=1;dashed=1;" parent="1" vertex="1">
                    <mxGeometry x="401" y="354" width="110" height="30" as="geometry"/>
                </mxCell>
                <mxCell id="vhz3e2oSNB2hs0tcHL_v-30" value="App Object" style="rounded=1;whiteSpace=wrap;html=1;labelBackgroundColor=none;labelBorderColor=none;strokeColor=default;strokeWidth=0.5;fontFamily=Verdana;fontSize=7;fontColor=#000000;fillColor=#FFFFFF;gradientColor=none;flipV=1;flipH=1;" parent="1" vertex="1">
                    <mxGeometry x="700" y="338.5" width="47" height="23" as="geometry"/>
                </mxCell>
                <mxCell id="vhz3e2oSNB2hs0tcHL_v-27" style="edgeStyle=none;html=1;exitX=1;exitY=0.5;exitDx=0;exitDy=0;entryX=0;entryY=0.5;entryDx=0;entryDy=0;strokeWidth=1;fontSize=7;endArrow=classic;endFill=1;" parent="1" source="vhz3e2oSNB2hs0tcHL_v-7" target="vhz3e2oSNB2hs0tcHL_v-15" edge="1">
                    <mxGeometry relative="1" as="geometry"/>
                </mxCell>
                <mxCell id="vhz3e2oSNB2hs0tcHL_v-32" value="" style="shape=flexArrow;endArrow=classic;html=1;strokeWidth=0.5;fontSize=7;width=22;endSize=6.67;fillColor=#E6E6E6;" parent="1" edge="1">
                    <mxGeometry width="50" height="50" relative="1" as="geometry">
                        <mxPoint x="523" y="320" as="sourcePoint"/>
                        <mxPoint x="553" y="320" as="targetPoint"/>
                        <Array as="points">
                            <mxPoint x="523" y="320"/>
                        </Array>
                    </mxGeometry>
                </mxCell>
                <mxCell id="vhz3e2oSNB2hs0tcHL_v-28" style="edgeStyle=none;html=1;exitX=0.5;exitY=1;exitDx=0;exitDy=0;entryX=0;entryY=0.5;entryDx=0;entryDy=0;strokeWidth=1;fontSize=7;endArrow=classic;endFill=1;" parent="1" source="vhz3e2oSNB2hs0tcHL_v-8" target="vhz3e2oSNB2hs0tcHL_v-16" edge="1">
                    <mxGeometry relative="1" as="geometry">
                        <Array as="points">
                            <mxPoint x="295" y="339"/>
                        </Array>
                    </mxGeometry>
                </mxCell>
                <mxCell id="vhz3e2oSNB2hs0tcHL_v-37" style="edgeStyle=none;html=1;exitX=0.5;exitY=0;exitDx=0;exitDy=0;entryX=0;entryY=0.75;entryDx=0;entryDy=0;strokeWidth=1;fontSize=7;endArrow=classic;endFill=1;fillColor=#E6E6E6;" parent="1" source="vhz3e2oSNB2hs0tcHL_v-36" target="vhz3e2oSNB2hs0tcHL_v-2" edge="1">
                    <mxGeometry relative="1" as="geometry"/>
                </mxCell>
                <mxCell id="vhz3e2oSNB2hs0tcHL_v-40" value="Submit&amp;nbsp;&lt;br&gt;L1 &amp;amp; L1.5 TX&lt;br&gt;(BTC Transfer, Ord Inscribe, Babylon Staking)" style="edgeLabel;html=1;align=center;verticalAlign=middle;resizable=0;points=[];fontSize=7;" parent="vhz3e2oSNB2hs0tcHL_v-37" vertex="1" connectable="0">
                    <mxGeometry x="-0.3141" y="2" relative="1" as="geometry">
                        <mxPoint as="offset"/>
                    </mxGeometry>
                </mxCell>
                <mxCell id="vhz3e2oSNB2hs0tcHL_v-39" style="edgeStyle=none;html=1;exitX=1;exitY=0.75;exitDx=0;exitDy=0;entryX=0;entryY=0.5;entryDx=0;entryDy=0;strokeWidth=1;fontSize=7;endArrow=classic;endFill=1;fillColor=#E6E6E6;" parent="1" source="vhz3e2oSNB2hs0tcHL_v-36" target="vhz3e2oSNB2hs0tcHL_v-29" edge="1">
                    <mxGeometry relative="1" as="geometry"/>
                </mxCell>
                <mxCell id="vhz3e2oSNB2hs0tcHL_v-41" value="Submit&lt;br&gt;L2 TX&lt;br&gt;(Self Staking UTXO, Pay Game)" style="edgeLabel;html=1;align=center;verticalAlign=middle;resizable=0;points=[];fontSize=7;" parent="vhz3e2oSNB2hs0tcHL_v-39" vertex="1" connectable="0">
                    <mxGeometry x="-0.1618" y="-1" relative="1" as="geometry">
                        <mxPoint as="offset"/>
                    </mxGeometry>
                </mxCell>
                <mxCell id="vhz3e2oSNB2hs0tcHL_v-36" value="" style="shape=actor;whiteSpace=wrap;html=1;rounded=1;dashed=1;dashPattern=1 1;strokeWidth=1;fontSize=7;fillColor=none;" parent="1" vertex="1">
                    <mxGeometry x="135" y="323" width="40" height="60" as="geometry"/>
                </mxCell>
                <mxCell id="vhz3e2oSNB2hs0tcHL_v-38" value="" style="endArrow=none;dashed=1;html=1;strokeWidth=1;fontSize=7;fillColor=#E6E6E6;" parent="1" edge="1">
                    <mxGeometry width="50" height="50" relative="1" as="geometry">
                        <mxPoint x="40" y="200" as="sourcePoint"/>
                        <mxPoint x="780" y="200" as="targetPoint"/>
                    </mxGeometry>
                </mxCell>
                <mxCell id="vhz3e2oSNB2hs0tcHL_v-42" value="Bitcoin" style="text;html=1;strokeColor=none;fillColor=none;align=center;verticalAlign=middle;whiteSpace=wrap;rounded=0;dashed=1;dashPattern=1 1;strokeWidth=3;fontSize=20;" parent="1" vertex="1">
                    <mxGeometry x="641.5" y="107" width="60" height="30" as="geometry"/>
                </mxCell>
            </root>
        </mxGraphModel>
    </diagram>
</mxfile>